<svg xmlns="http://www.w3.org/2000/svg" width="1200" height="900" viewBox="0 0 1200 900" role="img" aria-labelledby="title desc">
  <title id="title">MiamSweets cake 3</title>
  <desc id="desc">Decorative homemade cake illustration.</desc>
  <defs>
    <linearGradient id="bg" x1="0" x2="1" y1="0" y2="1">
      <stop stop-color="#ead7ff"/>
      <stop offset="1" stop-color="#fff6fb"/>
    </linearGradient>
    <filter id="shadow" x="-20%" y="-20%" width="140%" height="140%">
      <feDropShadow dx="0" dy="26" stdDeviation="24" flood-color="#5c3636" flood-opacity=".18"/>
    </filter>
  </defs>
  <rect width="1200" height="900" fill="url(#bg)"/>
  <circle cx="190" cy="150" r="108" fill="#6f4b8b" opacity=".12"/>
  <circle cx="1010" cy="740" r="150" fill="#6f4b8b" opacity=".14"/>
  <g filter="url(#shadow)">
    <ellipse cx="600" cy="680" rx="360" ry="76" fill="#d8b8aa" opacity=".38"/>
    <path d="M300 385c0-96 134-174 300-174s300 78 300 174v238c0 87-134 158-300 158s-300-71-300-158z" fill="#fff6fb"/>
    <ellipse cx="600" cy="385" rx="300" ry="174" fill="#fff"/>
    <path d="M314 390c53 63 160 103 286 103s233-40 286-103v119c-61 54-164 88-286 88s-225-34-286-88z" fill="#ead7ff"/>
    <path d="M388 334c58-58 141-88 236-88 82 0 151 23 205 69" fill="none" stroke="#6f4b8b" stroke-width="28" stroke-linecap="round" opacity=".65"/>
    <circle cx="480" cy="318" r="24" fill="#6f4b8b" opacity=".75"/>
    <circle cx="620" cy="279" r="21" fill="#6f4b8b" opacity=".65"/>
    <circle cx="752" cy="329" r="25" fill="#6f4b8b" opacity=".75"/>
    <path d="M474 165h252" stroke="#6f4b8b" stroke-width="14" stroke-linecap="round" opacity=".55"/>
  </g>
  <text x="600" y="840" text-anchor="middle" font-family="Arial, sans-serif" font-size="54" font-weight="700" fill="#6f4b8b">MiamSweets</text>
</svg>